<mxfile host="Electron" agent="Mozilla/5.0 (X11; Linux x86_64) AppleWebKit/537.36 (KHTML, like Gecko) draw.io/26.1.1 Chrome/132.0.6834.210 Electron/34.3.2 Safari/537.36" version="26.1.1">
  <diagram id="Ht1M8jgEwFfnCIfOTk4-" name="Page-1">
    <mxGraphModel dx="1687" dy="1818" grid="1" gridSize="10" guides="1" tooltips="1" connect="1" arrows="1" fold="1" page="1" pageScale="1" pageWidth="1169" pageHeight="827" math="0" shadow="0">
      <root>
        <mxCell id="0" />
        <mxCell id="1" parent="0" />
        <mxCell id="UEzPUAAOIrF-is8g5C7q-175" value="AWS Cloud" style="points=[[0,0],[0.25,0],[0.5,0],[0.75,0],[1,0],[1,0.25],[1,0.5],[1,0.75],[1,1],[0.75,1],[0.5,1],[0.25,1],[0,1],[0,0.75],[0,0.5],[0,0.25]];outlineConnect=0;gradientColor=none;html=1;whiteSpace=wrap;fontSize=12;fontStyle=0;shape=mxgraph.aws4.group;grIcon=mxgraph.aws4.group_aws_cloud_alt;strokeColor=#232F3E;fillColor=none;verticalAlign=top;align=left;spacingLeft=30;fontColor=#232F3E;dashed=0;labelBackgroundColor=#ffffff;container=1;pointerEvents=0;collapsible=0;recursiveResize=0;" parent="1" vertex="1">
          <mxGeometry x="190" y="-710" width="1120" height="660" as="geometry" />
        </mxCell>
        <mxCell id="AynOVhh_0rC88zhsTAHU-3" value="Amazon Route 53" style="sketch=0;points=[[0,0,0],[0.25,0,0],[0.5,0,0],[0.75,0,0],[1,0,0],[0,1,0],[0.25,1,0],[0.5,1,0],[0.75,1,0],[1,1,0],[0,0.25,0],[0,0.5,0],[0,0.75,0],[1,0.25,0],[1,0.5,0],[1,0.75,0]];outlineConnect=0;fontColor=#232F3E;fillColor=#8C4FFF;strokeColor=none;dashed=0;verticalLabelPosition=bottom;verticalAlign=top;align=center;html=1;fontSize=12;fontStyle=0;aspect=fixed;shape=mxgraph.aws4.resourceIcon;resIcon=mxgraph.aws4.route_53;labelBackgroundColor=default;" vertex="1" parent="UEzPUAAOIrF-is8g5C7q-175">
          <mxGeometry x="40" y="45" width="78" height="78" as="geometry" />
        </mxCell>
        <mxCell id="AynOVhh_0rC88zhsTAHU-7" value="AWS Certificate Manager" style="sketch=0;points=[[0,0,0],[0.25,0,0],[0.5,0,0],[0.75,0,0],[1,0,0],[0,1,0],[0.25,1,0],[0.5,1,0],[0.75,1,0],[1,1,0],[0,0.25,0],[0,0.5,0],[0,0.75,0],[1,0.25,0],[1,0.5,0],[1,0.75,0]];outlineConnect=0;fontColor=#232F3E;fillColor=#DD344C;strokeColor=none;dashed=0;verticalLabelPosition=bottom;verticalAlign=top;align=center;html=1;fontSize=12;fontStyle=0;aspect=fixed;shape=mxgraph.aws4.resourceIcon;resIcon=mxgraph.aws4.certificate_manager_3;" vertex="1" parent="UEzPUAAOIrF-is8g5C7q-175">
          <mxGeometry x="180" y="45" width="78" height="78" as="geometry" />
        </mxCell>
        <mxCell id="AynOVhh_0rC88zhsTAHU-5" value="Amazon CloudF ront" style="sketch=0;points=[[0,0,0],[0.25,0,0],[0.5,0,0],[0.75,0,0],[1,0,0],[0,1,0],[0.25,1,0],[0.5,1,0],[0.75,1,0],[1,1,0],[0,0.25,0],[0,0.5,0],[0,0.75,0],[1,0.25,0],[1,0.5,0],[1,0.75,0]];outlineConnect=0;fontColor=#232F3E;fillColor=#8C4FFF;strokeColor=none;dashed=0;verticalLabelPosition=bottom;verticalAlign=top;align=center;html=1;fontSize=12;fontStyle=0;aspect=fixed;shape=mxgraph.aws4.resourceIcon;resIcon=mxgraph.aws4.cloudfront;" vertex="1" parent="UEzPUAAOIrF-is8g5C7q-175">
          <mxGeometry x="180" y="196" width="78" height="78" as="geometry" />
        </mxCell>
        <mxCell id="AynOVhh_0rC88zhsTAHU-1" value="users" style="sketch=0;outlineConnect=0;gradientColor=none;fontColor=#545B64;strokeColor=none;fillColor=#879196;dashed=0;verticalLabelPosition=bottom;verticalAlign=top;align=center;html=1;fontSize=12;fontStyle=0;aspect=fixed;shape=mxgraph.aws4.illustration_users;pointerEvents=1" vertex="1" parent="UEzPUAAOIrF-is8g5C7q-175">
          <mxGeometry x="-140" y="195" width="80" height="80" as="geometry" />
        </mxCell>
        <mxCell id="AynOVhh_0rC88zhsTAHU-4" value="" style="endArrow=classic;html=1;rounded=0;edgeStyle=orthogonalEdgeStyle;strokeColor=#808080;entryX=0;entryY=0.5;entryDx=0;entryDy=0;entryPerimeter=0;" edge="1" parent="UEzPUAAOIrF-is8g5C7q-175" source="AynOVhh_0rC88zhsTAHU-1" target="AynOVhh_0rC88zhsTAHU-3">
          <mxGeometry width="50" height="50" relative="1" as="geometry">
            <mxPoint x="-100" y="134.28932188134524" as="sourcePoint" />
            <mxPoint x="-100" y="84.28932188134524" as="targetPoint" />
            <Array as="points">
              <mxPoint x="-100" y="84" />
            </Array>
          </mxGeometry>
        </mxCell>
        <mxCell id="AynOVhh_0rC88zhsTAHU-6" value="" style="endArrow=classic;html=1;rounded=0;edgeStyle=orthogonalEdgeStyle;strokeColor=#808080;" edge="1" parent="UEzPUAAOIrF-is8g5C7q-175" source="AynOVhh_0rC88zhsTAHU-1" target="AynOVhh_0rC88zhsTAHU-5">
          <mxGeometry width="50" height="50" relative="1" as="geometry">
            <mxPoint y="276.03" as="sourcePoint" />
            <mxPoint x="140" y="205.02999999999997" as="targetPoint" />
            <Array as="points" />
          </mxGeometry>
        </mxCell>
        <mxCell id="AynOVhh_0rC88zhsTAHU-8" value="Amazon S3" style="sketch=0;points=[[0,0,0],[0.25,0,0],[0.5,0,0],[0.75,0,0],[1,0,0],[0,1,0],[0.25,1,0],[0.5,1,0],[0.75,1,0],[1,1,0],[0,0.25,0],[0,0.5,0],[0,0.75,0],[1,0.25,0],[1,0.5,0],[1,0.75,0]];outlineConnect=0;fontColor=#232F3E;fillColor=#7AA116;strokeColor=none;dashed=0;verticalLabelPosition=bottom;verticalAlign=top;align=center;html=1;fontSize=12;fontStyle=0;aspect=fixed;shape=mxgraph.aws4.resourceIcon;resIcon=mxgraph.aws4.s3;" vertex="1" parent="UEzPUAAOIrF-is8g5C7q-175">
          <mxGeometry x="180" y="325" width="78" height="78" as="geometry" />
        </mxCell>
        <mxCell id="AynOVhh_0rC88zhsTAHU-10" value="Amazon Cognito" style="sketch=0;points=[[0,0,0],[0.25,0,0],[0.5,0,0],[0.75,0,0],[1,0,0],[0,1,0],[0.25,1,0],[0.5,1,0],[0.75,1,0],[1,1,0],[0,0.25,0],[0,0.5,0],[0,0.75,0],[1,0.25,0],[1,0.5,0],[1,0.75,0]];outlineConnect=0;fontColor=#232F3E;fillColor=#DD344C;strokeColor=none;dashed=0;verticalLabelPosition=bottom;verticalAlign=top;align=center;html=1;fontSize=12;fontStyle=0;aspect=fixed;shape=mxgraph.aws4.resourceIcon;resIcon=mxgraph.aws4.cognito;" vertex="1" parent="UEzPUAAOIrF-is8g5C7q-175">
          <mxGeometry x="180" y="457" width="78" height="78" as="geometry" />
        </mxCell>
        <mxCell id="AynOVhh_0rC88zhsTAHU-11" value="" style="endArrow=classic;html=1;rounded=0;strokeColor=#808080;" edge="1" parent="UEzPUAAOIrF-is8g5C7q-175">
          <mxGeometry width="50" height="50" relative="1" as="geometry">
            <mxPoint x="219" y="295" as="sourcePoint" />
            <mxPoint x="219" y="325" as="targetPoint" />
          </mxGeometry>
        </mxCell>
        <mxCell id="AynOVhh_0rC88zhsTAHU-13" value="" style="endArrow=classic;html=1;rounded=0;strokeColor=#808080;" edge="1" parent="UEzPUAAOIrF-is8g5C7q-175" target="AynOVhh_0rC88zhsTAHU-10">
          <mxGeometry width="50" height="50" relative="1" as="geometry">
            <mxPoint x="219" y="425" as="sourcePoint" />
            <mxPoint x="220" y="455" as="targetPoint" />
          </mxGeometry>
        </mxCell>
        <mxCell id="AynOVhh_0rC88zhsTAHU-14" value="AWS WAF" style="sketch=0;points=[[0,0,0],[0.25,0,0],[0.5,0,0],[0.75,0,0],[1,0,0],[0,1,0],[0.25,1,0],[0.5,1,0],[0.75,1,0],[1,1,0],[0,0.25,0],[0,0.5,0],[0,0.75,0],[1,0.25,0],[1,0.5,0],[1,0.75,0]];outlineConnect=0;fontColor=#232F3E;fillColor=#DD344C;strokeColor=none;dashed=0;verticalLabelPosition=bottom;verticalAlign=top;align=center;html=1;fontSize=12;fontStyle=0;aspect=fixed;shape=mxgraph.aws4.resourceIcon;resIcon=mxgraph.aws4.waf;" vertex="1" parent="UEzPUAAOIrF-is8g5C7q-175">
          <mxGeometry x="340" y="117" width="78" height="78" as="geometry" />
        </mxCell>
        <mxCell id="AynOVhh_0rC88zhsTAHU-12" value="" style="endArrow=classic;html=1;rounded=0;edgeStyle=orthogonalEdgeStyle;strokeColor=#808080;exitX=0.5;exitY=0;exitDx=0;exitDy=0;exitPerimeter=0;" edge="1" parent="UEzPUAAOIrF-is8g5C7q-175" source="AynOVhh_0rC88zhsTAHU-5">
          <mxGeometry width="50" height="50" relative="1" as="geometry">
            <mxPoint x="190" y="175" as="sourcePoint" />
            <mxPoint x="219" y="145" as="targetPoint" />
            <Array as="points" />
          </mxGeometry>
        </mxCell>
        <mxCell id="AynOVhh_0rC88zhsTAHU-17" value="SSL Certificate" style="sketch=0;points=[[0,0,0],[0.25,0,0],[0.5,0,0],[0.75,0,0],[1,0,0],[0,1,0],[0.25,1,0],[0.5,1,0],[0.75,1,0],[1,1,0],[0,0.25,0],[0,0.5,0],[0,0.75,0],[1,0.25,0],[1,0.5,0],[1,0.75,0]];outlineConnect=0;fontColor=#232F3E;fillColor=#DD344C;strokeColor=none;dashed=0;verticalLabelPosition=bottom;verticalAlign=top;align=center;html=1;fontSize=12;fontStyle=0;aspect=fixed;shape=mxgraph.aws4.resourceIcon;resIcon=mxgraph.aws4.private_certificate_authority;" vertex="1" parent="UEzPUAAOIrF-is8g5C7q-175">
          <mxGeometry x="290" y="5" width="45" height="45" as="geometry" />
        </mxCell>
        <mxCell id="AynOVhh_0rC88zhsTAHU-18" value="" style="endArrow=classic;html=1;rounded=0;edgeStyle=orthogonalEdgeStyle;entryX=0.5;entryY=0;entryDx=0;entryDy=0;entryPerimeter=0;strokeColor=#808080;" edge="1" parent="UEzPUAAOIrF-is8g5C7q-175" source="AynOVhh_0rC88zhsTAHU-17" target="AynOVhh_0rC88zhsTAHU-7">
          <mxGeometry width="50" height="50" relative="1" as="geometry">
            <mxPoint x="29.289321881345245" y="787.5" as="sourcePoint" />
            <mxPoint x="219.28932188134524" y="27.5" as="targetPoint" />
          </mxGeometry>
        </mxCell>
        <mxCell id="AynOVhh_0rC88zhsTAHU-31" value="" style="endArrow=classic;html=1;rounded=0;entryX=0;entryY=0.5;entryDx=0;entryDy=0;entryPerimeter=0;edgeStyle=orthogonalEdgeStyle;" edge="1" parent="UEzPUAAOIrF-is8g5C7q-175" source="AynOVhh_0rC88zhsTAHU-5" target="AynOVhh_0rC88zhsTAHU-14">
          <mxGeometry width="50" height="50" relative="1" as="geometry">
            <mxPoint x="68" y="995" as="sourcePoint" />
            <mxPoint x="328.71067811865476" y="235" as="targetPoint" />
          </mxGeometry>
        </mxCell>
        <mxCell id="AynOVhh_0rC88zhsTAHU-32" value="" style="endArrow=classic;html=1;rounded=0;entryX=0.5;entryY=0;entryDx=0;entryDy=0;entryPerimeter=0;edgeStyle=orthogonalEdgeStyle;" edge="1" parent="UEzPUAAOIrF-is8g5C7q-175" source="AynOVhh_0rC88zhsTAHU-14" target="AynOVhh_0rC88zhsTAHU-25">
          <mxGeometry width="50" height="50" relative="1" as="geometry">
            <mxPoint x="228" y="916" as="sourcePoint" />
            <mxPoint x="488.71067811865476" y="156" as="targetPoint" />
          </mxGeometry>
        </mxCell>
        <mxCell id="AynOVhh_0rC88zhsTAHU-15" value="Region" style="points=[[0,0],[0.25,0],[0.5,0],[0.75,0],[1,0],[1,0.25],[1,0.5],[1,0.75],[1,1],[0.75,1],[0.5,1],[0.25,1],[0,1],[0,0.75],[0,0.5],[0,0.25]];outlineConnect=0;gradientColor=none;html=1;whiteSpace=wrap;fontSize=12;fontStyle=0;container=1;pointerEvents=0;collapsible=0;recursiveResize=0;shape=mxgraph.aws4.group;grIcon=mxgraph.aws4.group_region;strokeColor=#00A4A6;fillColor=none;verticalAlign=top;align=left;spacingLeft=30;fontColor=#147EBA;dashed=1;" vertex="1" parent="UEzPUAAOIrF-is8g5C7q-175">
          <mxGeometry x="450" y="210" width="640" height="440" as="geometry" />
        </mxCell>
        <mxCell id="AynOVhh_0rC88zhsTAHU-34" value="" style="endArrow=classic;html=1;rounded=0;exitX=0.5;exitY=1;exitDx=0;exitDy=0;exitPerimeter=0;edgeStyle=orthogonalEdgeStyle;" edge="1" parent="AynOVhh_0rC88zhsTAHU-15" source="AynOVhh_0rC88zhsTAHU-25" target="AynOVhh_0rC88zhsTAHU-28">
          <mxGeometry width="50" height="50" relative="1" as="geometry">
            <mxPoint x="375" y="148" as="sourcePoint" />
            <mxPoint x="242" y="164" as="targetPoint" />
            <Array as="points">
              <mxPoint x="365" y="160" />
              <mxPoint x="519" y="160" />
            </Array>
          </mxGeometry>
        </mxCell>
        <mxCell id="AynOVhh_0rC88zhsTAHU-33" value="" style="endArrow=classic;html=1;rounded=0;exitX=0.5;exitY=1;exitDx=0;exitDy=0;exitPerimeter=0;edgeStyle=orthogonalEdgeStyle;" edge="1" parent="AynOVhh_0rC88zhsTAHU-15" source="AynOVhh_0rC88zhsTAHU-25" target="AynOVhh_0rC88zhsTAHU-27">
          <mxGeometry width="50" height="50" relative="1" as="geometry">
            <mxPoint x="334" y="169" as="sourcePoint" />
            <mxPoint x="263.28932188134524" y="169" as="targetPoint" />
            <Array as="points">
              <mxPoint x="365" y="160" />
              <mxPoint x="211" y="160" />
            </Array>
          </mxGeometry>
        </mxCell>
        <mxCell id="AynOVhh_0rC88zhsTAHU-19" value="Amazon CloudWatch" style="sketch=0;points=[[0,0,0],[0.25,0,0],[0.5,0,0],[0.75,0,0],[1,0,0],[0,1,0],[0.25,1,0],[0.5,1,0],[0.75,1,0],[1,1,0],[0,0.25,0],[0,0.5,0],[0,0.75,0],[1,0.25,0],[1,0.5,0],[1,0.75,0]];points=[[0,0,0],[0.25,0,0],[0.5,0,0],[0.75,0,0],[1,0,0],[0,1,0],[0.25,1,0],[0.5,1,0],[0.75,1,0],[1,1,0],[0,0.25,0],[0,0.5,0],[0,0.75,0],[1,0.25,0],[1,0.5,0],[1,0.75,0]];outlineConnect=0;fontColor=#232F3E;fillColor=#E7157B;strokeColor=none;dashed=0;verticalLabelPosition=bottom;verticalAlign=top;align=center;html=1;fontSize=12;fontStyle=0;aspect=fixed;shape=mxgraph.aws4.resourceIcon;resIcon=mxgraph.aws4.cloudwatch_2;" vertex="1" parent="AynOVhh_0rC88zhsTAHU-15">
          <mxGeometry x="30" y="40" width="78" height="78" as="geometry" />
        </mxCell>
        <mxCell id="AynOVhh_0rC88zhsTAHU-20" value="AWS Backup&lt;span style=&quot;color: rgba(0, 0, 0, 0); font-family: monospace; font-size: 0px; text-align: start;&quot;&gt;%3CmxGraphModel%3E%3Croot%3E%3CmxCell%20id%3D%220%22%2F%3E%3CmxCell%20id%3D%221%22%20parent%3D%220%22%2F%3E%3CmxCell%20id%3D%222%22%20value%3D%22%22%20style%3D%22endArrow%3Dclassic%3Bhtml%3D1%3Brounded%3D0%3BedgeStyle%3DorthogonalEdgeStyle%3BstrokeColor%3D%23808080%3B%22%20edge%3D%221%22%20parent%3D%221%22%3E%3CmxGeometry%20width%3D%2250%22%20height%3D%2250%22%20relative%3D%221%22%20as%3D%22geometry%22%3E%3CmxPoint%20x%3D%22130%22%20y%3D%22-460%22%20as%3D%22sourcePoint%22%2F%3E%3CmxPoint%20x%3D%22370%22%20y%3D%22-460%22%20as%3D%22targetPoint%22%2F%3E%3CArray%20as%3D%22points%22%2F%3E%3C%2FmxGeometry%3E%3C%2FmxCell%3E%3C%2Froot%3E%3C%2FmxGraphModel%3E&lt;/span&gt;" style="sketch=0;points=[[0,0,0],[0.25,0,0],[0.5,0,0],[0.75,0,0],[1,0,0],[0,1,0],[0.25,1,0],[0.5,1,0],[0.75,1,0],[1,1,0],[0,0.25,0],[0,0.5,0],[0,0.75,0],[1,0.25,0],[1,0.5,0],[1,0.75,0]];outlineConnect=0;fontColor=#232F3E;fillColor=#7AA116;strokeColor=none;dashed=0;verticalLabelPosition=bottom;verticalAlign=top;align=center;html=1;fontSize=12;fontStyle=0;aspect=fixed;shape=mxgraph.aws4.resourceIcon;resIcon=mxgraph.aws4.backup;" vertex="1" parent="AynOVhh_0rC88zhsTAHU-15">
          <mxGeometry x="30" y="160" width="78" height="78" as="geometry" />
        </mxCell>
        <mxCell id="AynOVhh_0rC88zhsTAHU-21" value="Amazon S3" style="sketch=0;points=[[0,0,0],[0.25,0,0],[0.5,0,0],[0.75,0,0],[1,0,0],[0,1,0],[0.25,1,0],[0.5,1,0],[0.75,1,0],[1,1,0],[0,0.25,0],[0,0.5,0],[0,0.75,0],[1,0.25,0],[1,0.5,0],[1,0.75,0]];outlineConnect=0;fontColor=#232F3E;fillColor=#7AA116;strokeColor=none;dashed=0;verticalLabelPosition=bottom;verticalAlign=top;align=center;html=1;fontSize=12;fontStyle=0;aspect=fixed;shape=mxgraph.aws4.resourceIcon;resIcon=mxgraph.aws4.s3;" vertex="1" parent="AynOVhh_0rC88zhsTAHU-15">
          <mxGeometry x="30" y="280" width="78" height="78" as="geometry" />
        </mxCell>
        <mxCell id="AynOVhh_0rC88zhsTAHU-22" value="VPC" style="sketch=0;outlineConnect=0;gradientColor=none;html=1;whiteSpace=wrap;fontSize=12;fontStyle=0;shape=mxgraph.aws4.group;grIcon=mxgraph.aws4.group_vpc;strokeColor=#879196;fillColor=none;verticalAlign=top;align=left;spacingLeft=30;fontColor=#879196;dashed=0;" vertex="1" parent="AynOVhh_0rC88zhsTAHU-15">
          <mxGeometry x="130" y="20" width="470" height="410" as="geometry" />
        </mxCell>
        <mxCell id="AynOVhh_0rC88zhsTAHU-23" value="Availability zone" style="sketch=0;outlineConnect=0;gradientColor=none;html=1;whiteSpace=wrap;fontSize=12;fontStyle=0;shape=mxgraph.aws4.group;grIcon=mxgraph.aws4.group_availability_zone;strokeColor=#545B64;fillColor=none;verticalAlign=top;align=left;spacingLeft=30;fontColor=#545B64;dashed=1;" vertex="1" parent="AynOVhh_0rC88zhsTAHU-15">
          <mxGeometry x="140" y="130" width="135.42" height="290" as="geometry" />
        </mxCell>
        <mxCell id="AynOVhh_0rC88zhsTAHU-24" value="Availability zone" style="sketch=0;outlineConnect=0;gradientColor=none;html=1;whiteSpace=wrap;fontSize=12;fontStyle=0;shape=mxgraph.aws4.group;grIcon=mxgraph.aws4.group_availability_zone;strokeColor=#545B64;fillColor=none;verticalAlign=top;align=left;spacingLeft=30;fontColor=#545B64;dashed=1;" vertex="1" parent="AynOVhh_0rC88zhsTAHU-15">
          <mxGeometry x="450" y="140" width="135.96" height="280" as="geometry" />
        </mxCell>
        <mxCell id="AynOVhh_0rC88zhsTAHU-25" value="Enable Load Balancing" style="sketch=0;points=[[0,0,0],[0.25,0,0],[0.5,0,0],[0.75,0,0],[1,0,0],[0,1,0],[0.25,1,0],[0.5,1,0],[0.75,1,0],[1,1,0],[0,0.25,0],[0,0.5,0],[0,0.75,0],[1,0.25,0],[1,0.5,0],[1,0.75,0]];outlineConnect=0;fontColor=#232F3E;fillColor=#8C4FFF;strokeColor=none;dashed=0;verticalLabelPosition=bottom;verticalAlign=top;align=center;html=1;fontSize=12;fontStyle=0;aspect=fixed;shape=mxgraph.aws4.resourceIcon;resIcon=mxgraph.aws4.elastic_load_balancing;" vertex="1" parent="AynOVhh_0rC88zhsTAHU-15">
          <mxGeometry x="326" y="60" width="78" height="78" as="geometry" />
        </mxCell>
        <mxCell id="AynOVhh_0rC88zhsTAHU-26" value="Auto Scaling Group" style="outlineConnect=0;dashed=0;verticalLabelPosition=bottom;verticalAlign=top;align=center;html=1;shape=mxgraph.aws3.auto_scaling;fillColor=#F58534;gradientColor=none;" vertex="1" parent="AynOVhh_0rC88zhsTAHU-15">
          <mxGeometry x="342.27" y="170" width="45.46" height="44" as="geometry" />
        </mxCell>
        <mxCell id="AynOVhh_0rC88zhsTAHU-27" value="Instance" style="sketch=0;outlineConnect=0;fontColor=#232F3E;gradientColor=none;fillColor=#ED7100;strokeColor=none;dashed=0;verticalLabelPosition=bottom;verticalAlign=top;align=center;html=1;fontSize=12;fontStyle=0;aspect=fixed;pointerEvents=1;shape=mxgraph.aws4.instance2;" vertex="1" parent="AynOVhh_0rC88zhsTAHU-15">
          <mxGeometry x="187.36" y="176" width="48" height="48" as="geometry" />
        </mxCell>
        <mxCell id="AynOVhh_0rC88zhsTAHU-28" value="Instance" style="sketch=0;outlineConnect=0;fontColor=#232F3E;gradientColor=none;fillColor=#ED7100;strokeColor=none;dashed=0;verticalLabelPosition=bottom;verticalAlign=top;align=center;html=1;fontSize=12;fontStyle=0;aspect=fixed;pointerEvents=1;shape=mxgraph.aws4.instance2;" vertex="1" parent="AynOVhh_0rC88zhsTAHU-15">
          <mxGeometry x="494.65" y="176" width="48" height="48" as="geometry" />
        </mxCell>
        <mxCell id="AynOVhh_0rC88zhsTAHU-29" value="Amazon RDS&lt;span style=&quot;color: rgba(0, 0, 0, 0); font-family: monospace; font-size: 0px; text-align: start;&quot;&gt;%3CmxGraphModel%3E%3Croot%3E%3CmxCell%20id%3D%220%22%2F%3E%3CmxCell%20id%3D%221%22%20parent%3D%220%22%2F%3E%3CmxCell%20id%3D%222%22%20value%3D%22%22%20style%3D%22sketch%3D0%3BoutlineConnect%3D0%3BfontColor%3D%23232F3E%3BgradientColor%3Dnone%3BfillColor%3D%23ED7100%3BstrokeColor%3Dnone%3Bdashed%3D0%3BverticalLabelPosition%3Dbottom%3BverticalAlign%3Dtop%3Balign%3Dcenter%3Bhtml%3D1%3BfontSize%3D12%3BfontStyle%3D0%3Baspect%3Dfixed%3BpointerEvents%3D1%3Bshape%3Dmxgraph.aws4.instance2%3B%22%20vertex%3D%221%22%20parent%3D%221%22%3E%3CmxGeometry%20x%3D%22831%22%20y%3D%22-370%22%20width%3D%2248%22%20height%3D%2248%22%20as%3D%22geometry%22%2F%3E%3C%2FmxCell%3E%3C%2Froot%3E%3C%2FmxGraphModel%3E&lt;/span&gt;" style="sketch=0;points=[[0,0,0],[0.25,0,0],[0.5,0,0],[0.75,0,0],[1,0,0],[0,1,0],[0.25,1,0],[0.5,1,0],[0.75,1,0],[1,1,0],[0,0.25,0],[0,0.5,0],[0,0.75,0],[1,0.25,0],[1,0.5,0],[1,0.75,0]];outlineConnect=0;fontColor=#232F3E;fillColor=#C925D1;strokeColor=#ffffff;dashed=0;verticalLabelPosition=bottom;verticalAlign=top;align=center;html=1;fontSize=12;fontStyle=0;aspect=fixed;shape=mxgraph.aws4.resourceIcon;resIcon=mxgraph.aws4.rds;" vertex="1" parent="AynOVhh_0rC88zhsTAHU-15">
          <mxGeometry x="172.36" y="310" width="78" height="78" as="geometry" />
        </mxCell>
        <mxCell id="AynOVhh_0rC88zhsTAHU-30" value="RDS Standby" style="sketch=0;points=[[0,0,0],[0.25,0,0],[0.5,0,0],[0.75,0,0],[1,0,0],[0,1,0],[0.25,1,0],[0.5,1,0],[0.75,1,0],[1,1,0],[0,0.25,0],[0,0.5,0],[0,0.75,0],[1,0.25,0],[1,0.5,0],[1,0.75,0]];outlineConnect=0;fontColor=#232F3E;fillColor=#C925D1;strokeColor=#ffffff;dashed=0;verticalLabelPosition=bottom;verticalAlign=top;align=center;html=1;fontSize=12;fontStyle=0;aspect=fixed;shape=mxgraph.aws4.resourceIcon;resIcon=mxgraph.aws4.rds;" vertex="1" parent="AynOVhh_0rC88zhsTAHU-15">
          <mxGeometry x="478.98" y="310" width="78" height="78" as="geometry" />
        </mxCell>
        <mxCell id="AynOVhh_0rC88zhsTAHU-36" value="" style="endArrow=classic;html=1;rounded=0;" edge="1" parent="AynOVhh_0rC88zhsTAHU-15" source="AynOVhh_0rC88zhsTAHU-27" target="AynOVhh_0rC88zhsTAHU-29">
          <mxGeometry width="50" height="50" relative="1" as="geometry">
            <mxPoint x="210" y="250" as="sourcePoint" />
            <mxPoint x="260" y="200" as="targetPoint" />
          </mxGeometry>
        </mxCell>
        <mxCell id="AynOVhh_0rC88zhsTAHU-37" value="" style="endArrow=classic;html=1;rounded=0;" edge="1" parent="AynOVhh_0rC88zhsTAHU-15" source="AynOVhh_0rC88zhsTAHU-29" target="AynOVhh_0rC88zhsTAHU-30">
          <mxGeometry width="50" height="50" relative="1" as="geometry">
            <mxPoint x="-389.64" y="899" as="sourcePoint" />
            <mxPoint x="321.07067811865477" y="349" as="targetPoint" />
          </mxGeometry>
        </mxCell>
        <mxCell id="AynOVhh_0rC88zhsTAHU-38" value="" style="endArrow=none;html=1;rounded=0;edgeStyle=orthogonalEdgeStyle;" edge="1" parent="AynOVhh_0rC88zhsTAHU-15" source="AynOVhh_0rC88zhsTAHU-28" target="AynOVhh_0rC88zhsTAHU-29">
          <mxGeometry width="50" height="50" relative="1" as="geometry">
            <mxPoint x="-121.35000000000002" y="774" as="sourcePoint" />
            <mxPoint x="210" y="310" as="targetPoint" />
            <Array as="points">
              <mxPoint x="519" y="280" />
              <mxPoint x="211" y="280" />
            </Array>
          </mxGeometry>
        </mxCell>
      </root>
    </mxGraphModel>
  </diagram>
</mxfile>
